<?xml version="1.0" encoding="UTF-8"?>
<svg id="Lager_1" data-name="Lager 1" xmlns="http://www.w3.org/2000/svg" viewBox="0 0 409.7 409.06">
  <defs>
    <style>
      .cls-1 {
        fill: #f5f0a2;
      }
    </style>
  </defs>
  <path class="cls-1" d="M380.17,0H30.17C13.89,0,.64,13.25.64,29.39l-.64,101.93h.24l47.97-13.51c1.04-.29,1.76-1.24,1.77-2.32l.4-63.21c0-1.33,1.09-2.41,2.42-2.41h304.59c1.34,0,2.42,1.08,2.42,2.42v304.45c0,1.34-1.08,2.42-2.42,2.42H52.94c-1.34,0-2.42-1.08-2.42-2.42v-151.54c0-1.09.73-2.05,1.78-2.34l173.8-47.82c2.08-.57,2.43-3.37.55-4.44l-55.37-31.48c-.56-.32-1.22-.4-1.84-.23L22.32,159.4c-12.77,3.52-21.68,15.22-21.68,28.46v191.67c0,16.31,13.22,29.53,29.53,29.53h350c16.31,0,29.53-13.22,29.53-29.53V29.53c0-16.31-13.22-29.53-29.53-29.53Z"/>
</svg>